<svg xmlns="http://www.w3.org/2000/svg" xmlns:xlink="http://www.w3.org/1999/xlink" viewBox="0 0 603.04 557.03">
  <defs>
    <linearGradient id="f26c0994-24ec-4ed3-a8f5-2c1a5a58daed" x1="313.72" y1="339.63" x2="234.44" y2="268.92" gradientUnits="userSpaceOnUse">
      <stop offset="0" stop-color="#fff"/>
      <stop offset="0.02" stop-color="#fff" stop-opacity="0.96"/>
      <stop offset="0.14" stop-color="#fff" stop-opacity="0.74"/>
      <stop offset="0.25" stop-color="#fff" stop-opacity="0.54"/>
      <stop offset="0.37" stop-color="#fff" stop-opacity="0.37"/>
      <stop offset="0.49" stop-color="#fff" stop-opacity="0.24"/>
      <stop offset="0.61" stop-color="#fff" stop-opacity="0.13"/>
      <stop offset="0.74" stop-color="#fff" stop-opacity="0.06"/>
      <stop offset="0.86" stop-color="#fff" stop-opacity="0.01"/>
      <stop offset="1" stop-color="#fff" stop-opacity="0"/>
    </linearGradient>
    <clipPath id="f4c14bbf-d1f4-40f8-8ecd-87fb8db3f421">
      <polygon points="289.13 339 290.01 329.4 298.09 329.37 297.21 338.94 289.13 339" style="fill: none"/>
    </clipPath>
  </defs>
  <title>Asset 3</title>
  <g id="a21ac62b-66eb-4a85-ad03-3806080e7931" data-name="Layer 2">
    <g id="a6ce3800-14c1-4993-86f8-8f80e7475d8e" data-name="Layer 1">
      <path d="M597,302.93c9.74,50.47,8,102.32-7.55,152.44C567,517.6,510,566,442.55,555.62,259.34,526.24,5.26,448.46.07,232.41-3.38,108,114.15,9.44,236.87.8,380.33-9.57,518.6,82,572,213.62A394,394,0,0,1,597,302.93Z" style="fill: #f9eeed"/>
      <g>
        <ellipse cx="314.17" cy="501.07" rx="254.87" ry="22.89" style="fill: #192f85"/>
        <g>
          <rect x="141.75" y="47.2" width="365.16" height="352.94" style="fill: #f9eeed"/>
          <circle cx="291.17" cy="87.08" r="26.85" style="fill: #ffba4f"/>
          <rect x="433.42" y="153.13" width="74.7" height="250.58" style="fill: #bac2e3"/>
          <rect x="141.07" y="153.13" width="74.7" height="250.58" style="fill: #bac2e3"/>
          <rect x="297.6" y="187.08" width="52.97" height="216.63" style="fill: #bac2e3"/>
          <rect x="232.41" y="208.14" width="52.97" height="195.58" style="fill: #bac2e3"/>
          <rect x="203.72" y="223.76" width="233.78" height="179.96" style="fill: #bac2e3"/>
          <g>
            <rect x="446.15" y="165.01" width="12.9" height="20.88" style="fill: #fff"/>
            <rect x="474.68" y="195.57" width="12.9" height="20.88" style="fill: #fff"/>
            <rect x="444.46" y="220.02" width="12.9" height="20.88" style="fill: #fff"/>
            <rect x="465.34" y="261.28" width="12.9" height="20.88" style="fill: #fff"/>
            <rect x="433.59" y="297.27" width="12.9" height="20.88" style="fill: #fff"/>
            <rect x="477.56" y="338.01" width="12.9" height="20.88" style="fill: #fff"/>
            <rect x="392.25" y="262.29" width="12.9" height="20.88" style="fill: #fff"/>
            <rect x="315.6" y="214.42" width="12.9" height="20.88" style="fill: #fff"/>
            <rect x="184.7" y="175.71" width="12.9" height="20.88" style="fill: #fff"/>
            <rect x="328.08" y="293.36" width="12.9" height="20.88" style="fill: #fff"/>
            <rect x="390.55" y="336.82" width="12.9" height="20.88" style="fill: #fff"/>
            <rect x="287.59" y="262.04" width="12.9" height="20.88" style="fill: #fff"/>
            <rect x="264.92" y="327.74" width="12.9" height="20.88" style="fill: #fff"/>
            <rect x="154.32" y="176.13" width="12.9" height="20.88" style="fill: #fff"/>
            <rect x="171.29" y="224.01" width="12.9" height="20.88" style="fill: #fff"/>
            <rect x="171.29" y="286.66" width="12.9" height="20.88" style="fill: #fff"/>
            <rect x="218.91" y="286.66" width="12.9" height="20.88" style="fill: #fff"/>
            <rect x="217.98" y="241.33" width="12.9" height="20.88" style="fill: #fff"/>
            <rect x="253.63" y="227.24" width="12.9" height="20.88" style="fill: #fff"/>
          </g>
          <rect x="140.05" y="46.17" width="366.71" height="357.54" style="fill: none;stroke: #1c1737;stroke-miterlimit: 10;stroke-width: 5.09316089156151px"/>
          <path d="M496.83,98.17a8.41,8.41,0,0,0-7.67-11.9,8.48,8.48,0,0,0-2.72.46,13.38,13.38,0,0,0-17.67-10.08,18.58,18.58,0,0,0-34.27,5.71,12.39,12.39,0,0,0-19.1,8.79,7.45,7.45,0,0,0-7.59.27,11.65,11.65,0,0,0-23.08-.91,7,7,0,0,0-1.9-.27,6.68,6.68,0,0,0-6.69,6.69,6.36,6.36,0,0,0,.12,1.24Z" style="fill: #fff"/>
          <path d="M393,172a5.11,5.11,0,0,0,.47-2.14,5.17,5.17,0,0,0-6.88-4.91,8.23,8.23,0,0,0-10.89-6.22,11.47,11.47,0,0,0-21.14,3.52,7.64,7.64,0,0,0-11.77,5.42,4.59,4.59,0,0,0-2.21-.56,4.53,4.53,0,0,0-2.47.73,7.19,7.19,0,0,0-14.24-.56,4.09,4.09,0,0,0-1.17-.17,4.13,4.13,0,0,0-4.13,4.13,3.84,3.84,0,0,0,.08.76Z" style="fill: #fff"/>
          <path d="M246.67,94.53a5.07,5.07,0,0,0,.46-2.14,5.19,5.19,0,0,0-6.87-4.91,8.26,8.26,0,0,0-10.89-6.22,11.47,11.47,0,0,0-21.14,3.53,7.55,7.55,0,0,0-4.2-1.26,7.65,7.65,0,0,0-7.58,6.68,4.53,4.53,0,0,0-2.2-.57,4.59,4.59,0,0,0-2.48.73,7.18,7.18,0,0,0-14.23-.55,3.77,3.77,0,0,0-1.17-.18,4.13,4.13,0,0,0-4.13,4.13,4.67,4.67,0,0,0,.07.76Z" style="fill: #fff"/>
          <rect x="219.51" y="47.19" width="5.43" height="355.84" style="fill: #1c1737"/>
          <rect x="416.44" y="47.19" width="5.43" height="355.84" style="fill: #1c1737"/>
          <rect x="319.8" y="-60.32" width="5.43" height="364.42" transform="translate(444.41 -200.62) rotate(90)" style="fill: #1c1737"/>
          <rect x="319.8" y="162.43" width="5.43" height="364.42" transform="translate(667.15 22.12) rotate(90)" style="fill: #1c1737"/>
        </g>
        <g>
          <polygon points="347.86 486.21 336.16 498.21 329.57 498.21 335.31 486.1 347.86 486.21" style="fill: #f9cfcd"/>
          <polygon points="516.09 486.21 527.78 498.21 534.38 498.21 528.63 486.1 516.09 486.21" style="fill: #f9cfcd"/>
          <rect x="329.67" y="467.23" width="204.49" height="19.78" style="fill: #fccfcd"/>
          <rect x="326" y="383.33" width="211.83" height="95.7" style="fill: #ffdfdc"/>
          <rect x="337.57" y="391.62" width="98.26" height="22.97" style="fill: none;stroke: #1c1737;stroke-miterlimit: 10;stroke-width: 1.0186321783123px"/>
          <rect x="372.66" y="394.81" width="28.07" height="4.15" style="fill: #1c1737"/>
          <rect x="337.57" y="419.7" width="98.26" height="22.97" style="fill: none;stroke: #1c1737;stroke-miterlimit: 10;stroke-width: 1.0186321783123px"/>
          <rect x="372.66" y="422.89" width="28.07" height="4.15" style="fill: #1c1737"/>
          <rect x="337.57" y="448.09" width="98.26" height="22.97" style="fill: none;stroke: #1c1737;stroke-miterlimit: 10;stroke-width: 1.0186321783123px"/>
          <rect x="372.66" y="451.28" width="28.07" height="4.15" style="fill: #1c1737"/>
          <rect x="448.13" y="391" width="81.19" height="79.11" style="fill: #1c1737"/>
          <rect x="475.71" y="394.81" width="28.07" height="4.15" style="fill: #ffdfdc"/>
        </g>
        <polygon points="283.82 417.35 296.73 506.65 293.33 506.65 275 419.39 283.82 417.35" style="fill: #1c1737"/>
        <polygon points="208.1 417.35 195.2 506.65 198.6 506.65 216.93 419.39 208.1 417.35" style="fill: #1c1737"/>
        <polygon points="169.06 417.35 156.15 506.65 159.55 506.65 177.88 419.39 169.06 417.35" style="fill: #1c1737"/>
        <path d="M235.1,430.76c-92.68-1.5-84.55-9.17-107.47-73.34s25.47-90.66,75.38-81,92.7,39.72,98.81,83.53S329.32,432.29,235.1,430.76Z" style="fill: #ffba4f"/>
        <path d="M278.73,400s-103.11.06-108-6.79c-18.33-25.8-38.7-72.32-20.71-87.26" style="fill: none;stroke: #1c1737;stroke-linecap: round;stroke-linejoin: round;stroke-width: 1.0186321783123px"/>
        <g>
          <path d="M328.9,447.63,340,461.38s-4.1,12-2.4,16c0,0,7.5,1.15,10.51,3.73s6.65,8.48,15.95,7.43,11.53-2.69,11.53-2.69l1.05-.34c-1.52-3.39-5.74-5.42-9.46-6a8.07,8.07,0,0,1-4.47-1.69c-2.35-2.38-12.85-18-12.85-18l-17.7-27.56Z" style="fill: #ff899e"/>
          <polygon points="345.55 479.11 347.93 490.75 343.03 491.63 337.63 477.41 345.55 479.11" style="fill: #1c1737"/>
          <path d="M366.19,489c9.17-1.66,11-2.77,11.21-2.89a.62.62,0,1,0-.69-1c-.06,0-1.9,1.14-10.95,2.74-8.4,1.51-12.75-2.78-16.24-6.23l-.95-.93c-3.86-3.71-11.26-4-11.57-4a.62.62,0,0,0-.64.6.61.61,0,0,0,.6.63c.07,0,7.24.27,10.75,3.65l.94.92c3.5,3.46,8.3,8.19,17.33,6.57Z" style="fill: #1c1737"/>
          <path d="M366.71,479.37l-.06,8.74s-5.27.64-7.56.22a24.1,24.1,0,0,1-5.59-2.23l6-12.43S364.4,479.47,366.71,479.37Z" style="fill: #1c1737"/>
        </g>
        <g>
          <path d="M300.6,461l8.51,15.5s-6.17,11.05-5.21,15.35c0,0,7.17,2.47,9.68,5.54s5,9.53,14.37,10.15,11.83-.59,11.83-.59l1.09-.16c-.89-3.6-4.69-6.35-8.25-7.53-1.72-.58-3.37-1.38-4.1-2.46-1.89-2.77-9.45-20-9.45-20l-12.52-30.27Z" style="fill: #ff899e"/>
          <polygon points="311.39 494.95 311.66 506.83 306.68 506.82 303.9 491.87 311.39 494.95" style="fill: #1c1737"/>
          <path d="M329.93,508.39c9.32,0,11.35-.77,11.55-.86a.62.62,0,0,0,.32-.81.63.63,0,0,0-.82-.32c-.07,0-2.06.78-11.26.75-8.54,0-12.05-5-14.88-9l-.76-1.08c-3.14-4.34-10.37-5.92-10.68-6a.62.62,0,0,0-.25,1.21c.07,0,7.07,1.55,9.93,5.5.24.35.5.7.75,1.07,2.83,4,6.71,9.54,15.89,9.55Z" style="fill: #1c1737"/>
          <path d="M332.16,499l-1.61,8.6s-5.3-.32-7.48-1.14a24.28,24.28,0,0,1-5.1-3.18l8.15-11.16S329.88,498.66,332.16,499Z" style="fill: #1c1737"/>
        </g>
        <path d="M182.9,221.14a27.6,27.6,0,0,0-10.12,14.43c-1.1,3.78-1.42,7.83-3.12,11.38a15.52,15.52,0,0,1-7.87,7.53c-5.45,2.29-11.83,1.24-17.24,3.61a15.2,15.2,0,0,0-8.16,8.84A15.59,15.59,0,0,0,137.2,279c1.86,3.62,5.13,6.44,6.44,10.31,1.55,4.58,0,9.75,1.35,14.4a12.08,12.08,0,0,0,11.24,8.63l-.08-4.72-1,0" style="fill: none;stroke: #382c6f;stroke-miterlimit: 10;stroke-width: 0.789078024974346px"/>
        <path d="M146,301.43c.32,5,3.86,9.29,8.13,11.75s9.2,3.37,14.05,4.14,10,1.44,15,.7,9.93-3,12.9-7.17c4.08-5.66,4.25-14.24,10-18.07,5.23-3.46,13.2-1.51,17.31-6.28,2.94-3.42,2.32-8.75.42-12.85S219,266,217.45,261.72c-1.94-5.51-1.26-11.56-1.49-17.41a54.45,54.45,0,0,0-2.08-12.94,19.7,19.7,0,0,0-3.48-7.31c-2.41-2.89-6-4.42-9.65-5.35a27.39,27.39,0,0,0-14-.24A17.34,17.34,0,0,0,175.84,227c-3.75,7.33-1.18,17.26-6.4,23.59-6.79,8.24-22.24,4.77-27.67,14-2.69,4.56-1.59,10.41.23,15.38s4.35,9.9,4.29,15.21C146.27,297.23,145.83,299.33,146,301.43Z" style="fill: #382c6f"/>
        <path d="M177.36,250.61a22.83,22.83,0,0,1-3.66,8.05c-3.8,5-10.38,7.83-12.89,13.66a11.94,11.94,0,0,0-.45,8.1" style="fill: none;stroke: #fff;stroke-linecap: round;stroke-linejoin: round;stroke-width: 0.394538492048264px"/>
        <path d="M192,343.44s-12.27,50.06,15,54.38c16,2.55,75,2.83,75,2.83s-5.33,21.45,24.89,74.76c0,0,12.23-2.72,14.26-5.43l-21.66-83.91s2.31,26.86,36.6,76.1c0,0,13.46-10.63,12.57-11.55-5.14-5.29-30.22-84.2-42.79-94.05-3.62-2.84-66.29-3.31-66.29-3.31l-6.37-5.35-5.35-12.73Z" style="fill: #9d8bf0"/>
        <path d="M300.55,354.36c5.85,0,8.91,3.06,13.75,12.74s34.38,83.78,34.38,83.78" style="fill: none;stroke: #1c1737;stroke-linecap: round;stroke-linejoin: round;stroke-width: 0.949136929844856px"/>
        <path d="M205.3,397.15c10.61.84,89.05-20.89,89.05-20.89s3.73,14.94,7.81,23.77" style="fill: none;stroke: #1c1737;stroke-linecap: round;stroke-linejoin: round;stroke-width: 0.949136929844856px"/>
        <path d="M237.9,352.58a267.34,267.34,0,0,0-30.3,5.6" style="fill: none;stroke: #1c1737;stroke-linecap: round;stroke-linejoin: round;stroke-width: 0.949136929844856px"/>
        <polyline points="219.14 355.38 214.05 343.16 219.14 341.8 223.89 354.7" style="fill: none;stroke: #1c1737;stroke-linecap: round;stroke-linejoin: round;stroke-width: 0.949136929844856px"/>
        <path d="M191.81,351.31s-1.7,30.73,8,31.74,96.77-14.26,98.29-12.56,18.34,63.33,41.43,85.91" style="fill: none;stroke: #1c1737;stroke-linecap: round;stroke-linejoin: round;stroke-width: 0.949136929844856px"/>
        <path d="M246,389.17s40.58-.68,41.94,0,25,83.18,25,83.18" style="fill: none;stroke: #1c1737;stroke-linecap: round;stroke-linejoin: round;stroke-width: 0.949136929844856px"/>
        <path d="M193,371.68s9.85-4.92,8-21.39" style="fill: none;stroke: #1c1737;stroke-linecap: round;stroke-linejoin: round;stroke-width: 0.949136929844856px"/>
        <path d="M235.1,350.29s-6.45,1.53-11.21-13.24" style="fill: none;stroke: #1c1737;stroke-linecap: round;stroke-linejoin: round;stroke-width: 0.949136929844856px"/>
        <path d="M210.29,278s8.26.76,9.78,2.54,12.6,27.22,12.6,27.22L229,315.15l-20.89-2.3h-7.64l-10.69-7.64Z" style="fill: #ff899e"/>
        <path d="M230.59,302.53l7,16.94,34.89,23.18,12.36-23.18,9.29,1.64a23.87,23.87,0,0,1-6.83,1.64l-.55,7.93L268,350.29s-34.9-19-38.45-20.63-6.91-9.92-6.91-9.92Z" style="fill: #ff899e"/>
        <path d="M186.87,272.93s-21.29,10.21-22.42,12.67c-2.69,5.86,1.25,24.45,1.25,24.45l41.67-7,6-19.31-3.1-5.79Z" style="fill: #ff899e"/>
        <path d="M184.25,251.86s.27,19.58-.33,21.12-11.86,7.52-11.86,7.52,20.47,6.95,35.16-2.5c0,0-8.2-3.59-8.72-4.75s-2.29-13.75-2.29-13.75Z" style="fill: #ff899e"/>
        <path d="M187.22,256.32l3.17,2,6.51,4.93c.2,1.4.47,3.87.86,6.31a17.63,17.63,0,0,1-13.44-9.34c0-1.21,0-3.1,0-4Z" style="fill: #e0598e;opacity: 0.39"/>
        <path d="M204.79,308.52s9.68-16.8,10.7-17.31c.72-.36,9.17,13.24,9.17,13.24l1.56,3a5,5,0,0,1,0,4.73l-2,3.74,6.36,27.61s-19.95,20.77-45.36,17.22l-3.91-63.55S203.78,307.25,204.79,308.52Z" style="fill: #ffdfdc"/>
        <path d="M178.31,347.74c-7.93,0-14.39-48.89-14.39-48.89l17.45,2.54,5.5,27.16" style="fill: #ff899e"/>
        <path d="M212.21,241.31c-.08,18-9.67,24.72-13.73,24.66-5.26-.07-13.95-5-15.26-13.09,0,0-6.41-.72-6.51-4.3-.18-6.58,4.54-2.65,4.54-2.65s-6.47-23.33,11.66-26.34C204.75,217.63,212.28,224.05,212.21,241.31Z" style="fill: #ff899e"/>
        <path d="M191.24,240.49c.21-.38,1-.39,1.4-.46A6.25,6.25,0,0,1,195,240a13.75,13.75,0,0,1,1.79.44c.4.13,1.08.44,1.47.14a.66.66,0,0,0,.06-.84c-.4-.59-1.43-.74-2.07-.87C194.36,238.48,192.25,238.62,191.24,240.49Z" style="fill: #382c6f"/>
        <path d="M211.8,241.75c-.15-.41-1-.52-1.32-.65a6.39,6.39,0,0,0-2.29-.36,12.61,12.61,0,0,0-1.84.19c-.41.07-1.13.28-1.47-.07a.65.65,0,0,1,.05-.84c.48-.52,1.53-.54,2.17-.58C209,239.33,211.05,239.76,211.8,241.75Z" style="fill: #382c6f"/>
        <path d="M189.83,248.66c.08-.82,1.45-1.36,3.06-1.2s2.86.95,2.78,1.77-1.46,1.36-3.07,1.2S189.75,249.48,189.83,248.66Z" style="fill: #e0598e;opacity: 0.39"/>
        <path d="M205.49,249.77c.08-.82,1.31-1.37,2.74-1.23s2.52.92,2.44,1.74-1.3,1.37-2.73,1.23S205.41,250.59,205.49,249.77Z" style="fill: #e0598e;opacity: 0.39"/>
        <path d="M200,252.55a3,3,0,0,0,2.28-1.07.24.24,0,0,0,.05-.24,15,15,0,0,1-.27-7.82.25.25,0,0,0-.18-.31.24.24,0,0,0-.3.18,15.4,15.4,0,0,0,.23,8,2.38,2.38,0,0,1-1.76.81H200a.25.25,0,0,0-.06.49Z" style="fill: #e0598e"/>
        <path d="M195.44,256l3.72-1,1.24,1.19,1.31-1,2.69,1.64s-1.63,3.9-4.85,3.8S195.44,256,195.44,256Z" style="fill: #e0598e"/>
        <path d="M193.57,244.64c.09-.93.73-1.63,1.42-1.56a1.52,1.52,0,0,1,1.09,1.8c-.09.93-.73,1.62-1.42,1.56A1.53,1.53,0,0,1,193.57,244.64Z" style="fill: #1c1737"/>
        <path d="M206.06,245.68c.09-.93.73-1.63,1.42-1.56a1.52,1.52,0,0,1,1.09,1.8c-.09.93-.73,1.62-1.42,1.56A1.52,1.52,0,0,1,206.06,245.68Z" style="fill: #1c1737"/>
        <path d="M179.63,253.48c.15-2.34,1.41-4.17,2.81-4.08s2.41,2.06,2.26,4.4-1.4,4.17-2.8,4.08S179.48,255.82,179.63,253.48Z" style="fill: #ffba4f"/>
        <path d="M178.89,241.46l2.36,4.47s15.67-7.71,19.49-18.65c0,0,8.72,10.73,13,14.2,0,0,.87-16.91-7.35-20s-20.22-5.28-24.58,1.63S178.89,241.46,178.89,241.46Z" style="fill: #382c6f"/>
        <path d="M194.44,221.77a31.82,31.82,0,0,0-15.15,23" style="fill: none;stroke: #fff;stroke-linecap: round;stroke-linejoin: round;stroke-width: 0.394538492048264px"/>
        <path d="M191.24,221c-4.93,1.15-8.73,5.33-11,10s-3.23,9.75-4.6,14.72c-.83,3-1.85,6-3.82,8.43-3.39,4.09-8.92,5.53-13.06,8.81A18.82,18.82,0,0,0,151.93,279c.54,6.06,2.37,9.25,4.85,11.52" style="fill: none;stroke: #fff;stroke-linecap: round;stroke-linejoin: round;stroke-width: 0.394538492048264px"/>
        <path d="M215.74,293.92s-1.69-13.75-4.07-16.12" style="fill: none;stroke: #ffdfdc;stroke-linecap: round;stroke-linejoin: round;stroke-width: 1.0186321783123px"/>
        <path d="M182.13,299s-1.53-13.08-7-20.88" style="fill: none;stroke: #ffdfdc;stroke-linecap: round;stroke-linejoin: round;stroke-width: 1.0186321783123px"/>
        <g>
          <g>
            <g>
              <path d="M105.78,302.86c-3.07-1.15-6,2.16-7.09,5.24-2.87,7.86-2,17.65-8.2,23.31-1.21,1.11-2.64,2-3.75,3.21a12.46,12.46,0,0,0-2.8,7.62c-.38,5.54,1.34,11,2,16.49s0,11.74-4,15.51c-2,1.82-4.59,2.91-6.32,5-3.59,4.28-2,10.69-.32,16s2.9,12-1.11,15.85c-1.08,1.05-2.46,1.77-3.46,2.9-2.41,2.72-2,6.84-1.4,10.42q3.28,19.68,8,39.09a5.32,5.32,0,0,0,1.34,2.81c1,.9,2.52.88,3.88.81l10.26-.52c1.84-.1,3.8-.23,5.32-1.28s2.44-3.12,3.13-5c3-8.26,5.71-16.68,8-25.2,1.39-5.25,2.59-11,.34-16-1.19-2.59-3.24-4.74-4.23-7.41-3.68-9.94,8.67-19.23,8.42-29.83-.17-6.83-5.6-12.72-5.68-19.55-.08-7.88,7-15.64,3.75-22.83-1.06-2.38-3.11-4.18-4.35-6.46-3.87-7.07.9-15.61,1.28-23.66C108.88,306.83,108.17,303.76,105.78,302.86Z" style="fill: #9d8bf0"/>
              <path d="M103.22,309c-3.9,10.32-7.86,21.27-5.88,32.12a37.18,37.18,0,0,1,1,6.08c.06,6.17-4.75,11.37-5.78,17.45-1.07,6.34,2.09,12.78,1.32,19.17-.73,6-4.8,11-7.76,16.3S81.34,412.43,85,417.29c1.68,2.26,4.31,3.7,5.89,6,3,4.49,1.24,10.53-.73,15.57-3.36,8.57-7.08,17.86-4.55,26.72" style="fill: none;stroke: #efefef;stroke-linecap: round;stroke-linejoin: round;stroke-width: 0.541386301777192px"/>
              <path d="M94,379c-.07-1.74-.12-3.59.8-5.07,1.37-2.21,4.47-2.87,5.85-5.09,1.26-2,.67-4.64.81-7a11.31,11.31,0,0,1,4.9-8.6" style="fill: none;stroke: #efefef;stroke-linecap: round;stroke-linejoin: round;stroke-width: 0.541386301777192px"/>
              <path d="M104.11,334.06c-.45,1.77-2,3-3.47,4.13s-3,2.5-3.18,4.32" style="fill: none;stroke: #efefef;stroke-linecap: round;stroke-linejoin: round;stroke-width: 0.541386301777192px"/>
              <path d="M89.36,344.76c2.42,5.27.86,11.83,3.73,16.87" style="fill: none;stroke: #efefef;stroke-linecap: round;stroke-linejoin: round;stroke-width: 0.541386301777192px"/>
              <path d="M88.91,395.47a12.07,12.07,0,0,1,7.8-5.15c.91-.16,1.83-.22,2.72-.44a8.3,8.3,0,0,0,5.78-5.53c.22-.7.58-1.6,1.3-1.54" style="fill: none;stroke: #efefef;stroke-linecap: round;stroke-linejoin: round;stroke-width: 0.541386301777192px"/>
            </g>
            <path d="M80.9,380.51c2.34,2.58,3,6.25,3.23,9.72s.11,7,1.26,10.33" style="fill: none;stroke: #efefef;stroke-linecap: round;stroke-linejoin: round;stroke-width: 0.541386301777192px"/>
          </g>
          <g>
            <path d="M168.25,386.86c-.91-1.56-3.25-.79-4.76.42-3.86,3.08-6.8,8.32-11.31,9.24a27,27,0,0,0-2.67.44,8,8,0,0,0-3.75,3c-2,2.7-3.12,6-4.69,9s-3.93,6-6.93,6.59c-1.44.3-2.92,0-4.34.52-3,1-4.43,4.81-5.52,8s-2.8,7-5.8,7.7c-.81.19-1.64.12-2.44.38-1.94.61-3.15,2.84-4.1,4.84q-5.23,11-9.74,22.4a3.74,3.74,0,0,0-.38,1.85,2.64,2.64,0,0,0,1.37,1.64l4.53,3a4.62,4.62,0,0,0,2.68,1,5.77,5.77,0,0,0,3-1.55q6.1-4.84,11.85-10.27c2.35-2.23,4.8-4.78,5.51-8,.37-1.69.22-3.43.7-5.1,1.79-6.22,10.14-7,13.6-12.49,2.22-3.52,1.9-8.23,4.17-11.72,2.61-4,8.2-5.74,9.26-10.41.35-1.54.09-3.11.33-4.66.74-4.82,5.63-7.64,8.5-11.61C168.23,389.86,169,388.08,168.25,386.86Z" style="fill: #f9d5c9"/>
            <g>
              <path d="M160.61,394.75c-3.41,2.53-7,5.36-8.13,9.45-.27,1-.38,2.09-.73,3.08-1.73,4.87-8.54,6.2-10.67,10.91-.64,1.44-.79,3.06-1.48,4.48-1.38,2.79-4.54,4.14-7.4,5.38s-6,2.92-6.85,5.91a20.56,20.56,0,0,0-.44,3.67,12.78,12.78,0,0,1-5.13,8.89c-1.17.86-2.48,1.51-3.56,2.47a16.21,16.21,0,0,0-3.41,5.22q-2,4.17-4,8.33" style="fill: none;stroke: #212231;stroke-linecap: round;stroke-linejoin: round;stroke-width: 0.210698631426201px"/>
              <path d="M133.51,419.82a6.78,6.78,0,0,1,0,2.94c-.49,2-2.3,3.61-2.57,5.69" style="fill: none;stroke: #212231;stroke-linecap: round;stroke-linejoin: round;stroke-width: 0.210698631426201px"/>
              <path d="M148.75,400.43c-1.29,2.2-1,4.94-1.4,7.46a12.87,12.87,0,0,1-2.81,6.12" style="fill: none;stroke: #212231;stroke-linecap: round;stroke-linejoin: round;stroke-width: 0.210698631426201px"/>
              <path d="M157.09,406.3c-1.84,1.59-4.75,1.49-6.51,3.17" style="fill: none;stroke: #212231;stroke-linecap: round;stroke-linejoin: round;stroke-width: 0.210698631426201px"/>
              <path d="M142.64,427.64c-2.19,2.17-5.33,3-8.35,3.63s-6.16,1-8.84,2.53c-.08.05-.18.12-.17.21s.21.09.17,0" style="fill: none;stroke: #212231;stroke-linecap: round;stroke-linejoin: round;stroke-width: 0.210698631426201px"/>
              <path d="M118.61,434.32a36.63,36.63,0,0,0,1.13,6.28,9.6,9.6,0,0,1-.44,6.25" style="fill: none;stroke: #212231;stroke-linecap: round;stroke-linejoin: round;stroke-width: 0.210698631426201px"/>
              <path d="M126.29,450.46a3.67,3.67,0,0,1-1.25.84c-3.12,1.43-6.69,1.38-10.08,1.93-1,.16-2.15.51-2.45,1.47" style="fill: none;stroke: #212231;stroke-linecap: round;stroke-linejoin: round;stroke-width: 0.210698631426201px"/>
            </g>
          </g>
          <g>
            <path d="M145.42,355.3c-1.59-1.68-4.29,0-5.83,1.92-3.92,5-6.06,12.41-11.43,14.88a34.52,34.52,0,0,0-3.21,1.34,10.13,10.13,0,0,0-3.81,4.83c-1.74,4-2.15,8.42-3.22,12.65s-3.17,8.62-6.73,10.28c-1.73.8-3.65.89-5.29,1.93-3.39,2.17-4.13,7.31-4.54,11.67s-1.45,9.56-5,11.33c-1,.48-2,.64-2.94,1.19-2.24,1.34-3.1,4.48-3.7,7.27q-3.3,15.33-5.61,30.87a4.74,4.74,0,0,0,.07,2.43,3.39,3.39,0,0,0,2.2,1.65l6.53,2.4a5.87,5.87,0,0,0,3.65.51,7.46,7.46,0,0,0,3.31-2.82q6.21-7.86,11.8-16.33c2.29-3.48,4.61-7.39,4.55-11.63,0-2.23-.73-4.36-.62-6.59.41-8.3,10.62-11.76,13.34-19.61,1.75-5.06,0-10.85,1.77-15.89,2.09-5.8,8.58-9.58,8.53-15.73,0-2-.8-3.91-1-5.93-.49-6.24,4.8-11.21,7.22-17C146.28,359.06,146.67,356.62,145.42,355.3Z" style="fill: #382c6f"/>
            <g>
              <path d="M138.18,367.42c-3.52,4.16-7.23,8.76-7.39,14.21,0,1.35.14,2.71,0,4.06-.74,6.59-8.86,10.27-10.14,16.78-.39,2-.09,4.06-.54,6-.9,3.9-4.46,6.51-7.68,8.9s-6.59,5.41-6.83,9.41a26.86,26.86,0,0,0,.53,4.72,16.51,16.51,0,0,1-3.81,12.63,53.74,53.74,0,0,0-3.72,4.13c-1.54,2.2-2.16,4.9-2.74,7.53q-1.27,5.79-2.56,11.59" style="fill: none;stroke: #cfd7e0;stroke-linecap: round;stroke-linejoin: round;stroke-width: 0.541386301777192px"/>
              <path d="M111.65,406.73a8.82,8.82,0,0,1,.9,3.66c0,2.69-1.82,5.2-1.55,7.88" style="fill: none;stroke: #cfd7e0;stroke-linecap: round;stroke-linejoin: round;stroke-width: 0.541386301777192px"/>
              <path d="M125,378c-1,3.13.22,6.47.44,9.74a16.6,16.6,0,0,1-1.72,8.48" style="fill: none;stroke: #cfd7e0;stroke-linecap: round;stroke-linejoin: round;stroke-width: 0.541386301777192px"/>
              <path d="M137.17,382.89c-1.83,2.54-5.5,3.26-7.21,5.88" style="fill: none;stroke: #cfd7e0;stroke-linecap: round;stroke-linejoin: round;stroke-width: 0.541386301777192px"/>
              <path d="M125.35,413.83c-2.1,3.35-5.76,5.37-9.36,7s-7.41,3.07-10.32,5.76c-.09.08-.19.2-.15.31s.28.06.21-.05" style="fill: none;stroke: #cfd7e0;stroke-linecap: round;stroke-linejoin: round;stroke-width: 0.541386301777192px"/>
              <path d="M97.26,429.24c.68,2.65,2.13,5,3.26,7.52s2,5.29,1.29,7.94" style="fill: none;stroke: #cfd7e0;stroke-linecap: round;stroke-linejoin: round;stroke-width: 0.541386301777192px"/>
              <path d="M111.6,447.17a4.63,4.63,0,0,1-1.31,1.41c-3.49,2.71-8,3.7-12.05,5.37-1.19.5-2.53,1.28-2.62,2.57" style="fill: none;stroke: #cfd7e0;stroke-linecap: round;stroke-linejoin: round;stroke-width: 0.541386301777192px"/>
            </g>
          </g>
          <g>
            <path d="M13.85,354.2c1.6-1.68,4.3,0,5.83,1.92,3.92,5,6.06,12.41,11.43,14.88a34.52,34.52,0,0,1,3.21,1.34,10.13,10.13,0,0,1,3.81,4.83c1.74,4,2.15,8.42,3.22,12.65s3.17,8.62,6.74,10.28c1.72.8,3.64.89,5.28,1.93,3.4,2.17,4.13,7.31,4.55,11.67s1.44,9.56,5,11.33c1,.48,2,.64,2.94,1.19,2.24,1.34,3.1,4.48,3.7,7.27q3.32,15.33,5.61,30.87a4.74,4.74,0,0,1-.07,2.43,3.39,3.39,0,0,1-2.2,1.65l-6.53,2.4a5.87,5.87,0,0,1-3.65.51,7.46,7.46,0,0,1-3.31-2.82q-6.21-7.86-11.8-16.33c-2.29-3.48-4.6-7.39-4.54-11.63,0-2.23.72-4.36.61-6.59-.41-8.3-10.62-11.76-13.33-19.61-1.76-5.06,0-10.85-1.78-15.89-2.09-5.8-8.57-9.58-8.53-15.73,0-2,.8-3.91,1-5.93.48-6.24-4.81-11.21-7.23-17C13,358,12.6,355.52,13.85,354.2Z" style="fill: #f9d5c9"/>
            <g>
              <path d="M21.09,366.32c3.52,4.16,7.23,8.76,7.39,14.21.05,1.35-.14,2.71,0,4.06.74,6.59,8.86,10.27,10.14,16.78.39,2,.09,4.06.54,6,.9,3.9,4.46,6.51,7.68,8.9s6.59,5.41,6.83,9.41a26,26,0,0,1-.53,4.72A16.51,16.51,0,0,0,57,443.06c1.21,1.4,2.66,2.61,3.73,4.13,1.54,2.2,2.15,4.9,2.73,7.53L66,466.31" style="fill: none;stroke: #382c6f;stroke-linecap: round;stroke-linejoin: round;stroke-width: 0.770969842667584px"/>
              <path d="M47.62,405.63a8.82,8.82,0,0,0-.9,3.66c0,2.69,1.82,5.2,1.55,7.88" style="fill: none;stroke: #382c6f;stroke-linecap: round;stroke-linejoin: round;stroke-width: 0.770969842667584px"/>
              <path d="M34.25,376.9c1,3.13-.22,6.47-.44,9.74a16.6,16.6,0,0,0,1.72,8.48" style="fill: none;stroke: #382c6f;stroke-linecap: round;stroke-linejoin: round;stroke-width: 0.770969842667584px"/>
              <path d="M22.1,381.79c1.83,2.54,5.5,3.26,7.21,5.88" style="fill: none;stroke: #382c6f;stroke-linecap: round;stroke-linejoin: round;stroke-width: 0.770969842667584px"/>
              <path d="M33.92,412.73c2.1,3.35,5.76,5.37,9.37,7s7.4,3.07,10.31,5.76c.09.08.19.2.15.31s-.28.06-.21-.05" style="fill: none;stroke: #382c6f;stroke-linecap: round;stroke-linejoin: round;stroke-width: 0.770969842667584px"/>
              <path d="M62,428.14c-.68,2.65-2.13,5-3.26,7.52s-2,5.29-1.29,7.94" style="fill: none;stroke: #382c6f;stroke-linecap: round;stroke-linejoin: round;stroke-width: 0.770969842667584px"/>
              <path d="M47.67,446.07A4.63,4.63,0,0,0,49,447.48c3.49,2.71,8,3.7,12.05,5.38,1.19.49,2.53,1.27,2.62,2.56" style="fill: none;stroke: #382c6f;stroke-linecap: round;stroke-linejoin: round;stroke-width: 0.770969842667584px"/>
            </g>
          </g>
          <g>
            <path d="M58.74,372.12c1.48-1,3.28.64,4.14,2.38,2.21,4.42,2.67,10.4,6.38,13.13.73.54,1.55.91,2.24,1.52a8,8,0,0,1,2.15,4.28c.7,3.3.31,6.76.47,10.16s1.06,7.07,3.52,8.89c1.19.88,2.64,1.25,3.72,2.3,2.25,2.18,2,6.22,1.64,9.61s-.4,7.52,2,9.42c.66.52,1.43.8,2,1.37,1.5,1.37,1.66,3.9,1.68,6.12q.12,12.21-.56,24.42a3.66,3.66,0,0,1-.44,1.84,2.59,2.59,0,0,1-1.93.91l-5.36.81a4.58,4.58,0,0,1-2.86-.19,5.73,5.73,0,0,1-2.08-2.66q-3.51-7-6.43-14.3c-1.21-3-2.36-6.36-1.65-9.59.38-1.69,1.24-3.21,1.51-4.92,1-6.39-6.25-10.63-7.09-17-.55-4.13,1.72-8.27,1.13-12.4-.68-4.75-5-8.65-4-13.33.33-1.55,1.22-2.86,1.66-4.37,1.35-4.68-1.91-9.3-2.84-14.11C57.5,374.84,57.58,372.92,58.74,372.12Z" style="fill: #1c1737"/>
            <g>
              <path d="M62.36,382.49c2,3.72,4.13,7.82,3.41,12-.19,1-.54,2-.64,3.1-.47,5.14,5.15,9.22,5.1,14.38,0,1.58-.57,3.11-.53,4.69.07,3.11,2.38,5.66,4.45,8s4.18,5.16,3.73,8.24a19.27,19.27,0,0,1-1.14,3.52,12.8,12.8,0,0,0,.93,10.22c.7,1.27,1.61,2.41,2.19,3.74a16.2,16.2,0,0,1,.9,6.17l.13,9.24" style="fill: none;stroke: #fff;stroke-linecap: round;stroke-linejoin: round;stroke-width: 0.770969842667584px"/>
              <path d="M76.42,416.62a6.83,6.83,0,0,0-1.26,2.65c-.41,2.06.56,4.25-.06,6.25" style="fill: none;stroke: #fff;stroke-linecap: round;stroke-linejoin: round;stroke-width: 0.770969842667584px"/>
              <path d="M70.73,392.62c.25,2.54-1.18,4.9-1.86,7.36a12.81,12.81,0,0,0,0,6.73" style="fill: none;stroke: #fff;stroke-linecap: round;stroke-linejoin: round;stroke-width: 0.770969842667584px"/>
              <path d="M60.7,394.45c1,2.22,3.68,3.35,4.58,5.61" style="fill: none;stroke: #fff;stroke-linecap: round;stroke-linejoin: round;stroke-width: 0.770969842667584px"/>
              <path d="M64.85,419.88c1.08,2.89,3.56,5,6.05,6.81s5.17,3.5,7,6a.25.25,0,0,1,.06.27c0,.08-.22,0-.15-.07" style="fill: none;stroke: #fff;stroke-linecap: round;stroke-linejoin: round;stroke-width: 0.770969842667584px"/>
              <path d="M83.85,436a36,36,0,0,1-3.66,5.22A9.63,9.63,0,0,0,78,447.12" style="fill: none;stroke: #fff;stroke-linecap: round;stroke-linejoin: round;stroke-width: 0.770969842667584px"/>
              <path d="M70.11,447.46a3.54,3.54,0,0,0,.78,1.28c2.23,2.62,5.49,4.07,8.34,6,.83.56,1.73,1.37,1.6,2.37" style="fill: none;stroke: #fff;stroke-linecap: round;stroke-linejoin: round;stroke-width: 0.770969842667584px"/>
            </g>
          </g>
          <path d="M126.5,464.91H57l3.56,28.9c.61,5,7.5,8.93,15.79,8.93h30.83c8.29,0,15.17-3.9,15.79-8.93Z" style="fill: #ffba4f"/>
        </g>
        <path d="M185.83,328.55l53.08,15.62,19.78,4.16s2.51,3.68-.31,3.4-24.67-.28-24.67-.28l-3.12-2.08s-43.72,0-52.05-2.08S185.83,328.55,185.83,328.55Z" style="fill: #ff899e"/>
        <polygon points="321.14 313.98 264.94 205.73 211.85 244.24 209.47 337.05 258.38 351.73 321.14 313.98" style="opacity: 0.45;fill: url(#f26c0994-24ec-4ed3-a8f5-2c1a5a58daed)"/>
        <g>
          <g>
            <polygon points="320.66 314.16 264.02 314.04 256.08 355.31 312.34 355.99 320.66 314.16" style="fill: #e0598e"/>
            <polygon points="235.45 355.26 256.61 355.34 257.65 351.76 235.46 351.68 235.45 355.26" style="fill: #c94f80"/>
          </g>
          <g style="isolation: isolate">
            <g style="clip-path: url(#f4c14bbf-d1f4-40f8-8ecd-87fb8db3f421)">
              <path d="M294.06,329.39a3.63,3.63,0,0,0-1.61.38,4.8,4.8,0,0,0-1.38,1,5.73,5.73,0,0,0-1,1.53,5.87,5.87,0,0,0-.49,1.87,5.48,5.48,0,0,0,.14,1.87,4.56,4.56,0,0,0,.73,1.52,3.52,3.52,0,0,0,1.19,1,3.3,3.3,0,0,0,1.54.37,3.69,3.69,0,0,0,1.6-.38,4.61,4.61,0,0,0,1.38-1,5.52,5.52,0,0,0,1-1.52,5.74,5.74,0,0,0,.49-1.86,5.48,5.48,0,0,0-.14-1.87,4.56,4.56,0,0,0-.73-1.52,3.49,3.49,0,0,0-1.18-1,3.33,3.33,0,0,0-1.54-.37" style="fill: #fff"/>
            </g>
          </g>
        </g>
        <g>
          <path d="M465,347.66l6.38-3.33a.57.57,0,0,0,.25-.26,74.38,74.38,0,0,0,2.91-6.94.58.58,0,0,0-.76-.73L471,337.52a.57.57,0,0,1-.57-1l5.72-4.62a.61.61,0,0,0,.19-.29c.6-2.06,1.16-4.2,1.65-6.4.35-1.54.65-3.07.91-4.57a.58.58,0,0,0-.94-.54l-1.55,1.31a.57.57,0,0,1-.83-.78l4-5.34a.57.57,0,0,0,.11-.29,76.17,76.17,0,0,0,.53-9.73.57.57,0,0,0-.88-.48l-4.16,2.64a.58.58,0,0,1-.81-.78l5.09-8.87a.6.6,0,0,0,.07-.39c-1-5.57-3.09-9.25-6.11-9.93s-6.41,1.73-9.66,6.26a.6.6,0,0,0-.11.39l1,9.9a.58.58,0,0,1-1.08.33l-2.43-4.46a.58.58,0,0,0-1,0,73.49,73.49,0,0,0-3.81,9.11.54.54,0,0,0,0,.43l2.61,5.8a.58.58,0,0,1-.9.68l-2.41-2.08a.58.58,0,0,0-.93.28c-.51,1.8-1,3.67-1.41,5.58-.2.86-.37,1.72-.54,2.57a.54.54,0,0,0,.06.39c1.35,2.39,3,5.44,4.16,7.71a.58.58,0,0,1-.91.68l-3.31-3.24a.58.58,0,0,0-1,.34,85.59,85.59,0,0,0-.73,9.07.61.61,0,0,0,.11.35l1.48,2.08a.57.57,0,0,1-.73.84h0a.58.58,0,0,0-.84.54c.33,9.11,2.69,15.5,6.77,16.41,3.34.75,7.21-2.33,10.8-7.94a.58.58,0,0,0-.51-.89l-2.82.12A.57.57,0,0,1,465,347.66Z" style="fill: #ff899e"/>
          <path d="M454.49,342.27l6.12-6.77a.68.68,0,0,0,.19-.42,90.27,90.27,0,0,0,.27-9.31.74.74,0,0,0-1.25-.5L457,327.85a.73.73,0,0,1-1.15-.87l4.74-8a.68.68,0,0,0,.1-.42c-.23-2.64-.56-5.35-1-8.11q-.46-2.89-1-5.67a.76.76,0,0,0-1.39-.19L456,306.87a.74.74,0,0,1-1.37-.52l2.37-8a.81.81,0,0,0,0-.38,91.91,91.91,0,0,0-3.9-11.43.75.75,0,0,0-1.28-.14l-3.78,5a.74.74,0,0,1-1.33-.51l2-12.54a.71.71,0,0,0-.1-.49c-3.81-5.93-8-9.2-12-8.58s-6.91,4.94-8.72,11.65a.72.72,0,0,0,.06.5l5.75,10.93a.74.74,0,0,1-1.14.88l-5-4a.75.75,0,0,0-1.22.49A90.91,90.91,0,0,0,426,301.9a.71.71,0,0,0,.23.49l5.85,5.45a.72.72,0,0,1-.77,1.19l-3.87-1.27a.75.75,0,0,0-1,.75c.22,2.31.52,4.67.89,7.06.17,1.08.35,2.15.55,3.2a.65.65,0,0,0,.26.42c2.73,2.13,6.11,4.88,8.6,6.94a.72.72,0,0,1-.78,1.2l-5.5-2.19a.75.75,0,0,0-1,.84,100.51,100.51,0,0,0,3.34,10.76.69.69,0,0,0,.3.35l2.75,1.7a.72.72,0,0,1-.49,1.31h0a.74.74,0,0,0-.76,1c4.64,10.32,10.46,16.57,15.79,15.73,4.38-.68,7.61-6,9.32-14.12a.73.73,0,0,0-1-.78l-3.34,1.44A.71.71,0,0,1,454.49,342.27Z" style="fill: #e0598e"/>
          <path d="M448.83,348.06l1.83-4.46a.36.36,0,0,0,0-.25c-.39-1.53-.9-3.14-1.51-4.81a.38.38,0,0,0-.7-.05l-.94,1.77a.38.38,0,0,1-.72-.25l.93-4.84a.36.36,0,0,0,0-.23c-.58-1.32-1.22-2.66-1.92-4-.49-.94-1-1.85-1.51-2.74a.38.38,0,0,0-.71.13l-.23,1.35a.39.39,0,0,1-.77,0l-.24-4.49a.47.47,0,0,0-.06-.19,51.46,51.46,0,0,0-3.94-5.22.39.39,0,0,0-.66.13l-1,3.15a.39.39,0,0,1-.75,0l-1.23-6.75a.36.36,0,0,0-.13-.23c-2.93-2.42-5.59-3.41-7.43-2.45s-2.53,3.65-2.25,7.38a.42.42,0,0,0,.12.25l4.77,4.66a.39.39,0,0,1-.41.64l-3.18-1.24a.38.38,0,0,0-.51.45,49.74,49.74,0,0,0,2,6.32.36.36,0,0,0,.19.21l3.85,1.84a.39.39,0,0,1-.17.74l-2.13,0a.38.38,0,0,0-.36.54c.52,1.15,1.08,2.31,1.69,3.47.27.53.55,1,.83,1.55a.49.49,0,0,0,.2.18c1.73.64,3.88,1.5,5.47,2.15a.38.38,0,0,1-.17.74l-3.1-.22a.38.38,0,0,0-.36.59,56.89,56.89,0,0,0,3.55,5,.33.33,0,0,0,.21.13l1.65.43a.38.38,0,0,1,0,.75h0a.38.38,0,0,0-.19.63c4.1,4.54,8.08,6.79,10.56,5.5,2-1.06,2.69-4.32,2.11-8.75a.39.39,0,0,0-.65-.23l-1.39,1.28A.39.39,0,0,1,448.83,348.06Z" style="fill: #ff899e"/>
          <path d="M444,383.72h21.27a19.73,19.73,0,0,0,2.93-31,111.26,111.26,0,0,1-27.13,0,19.73,19.73,0,0,0,2.93,31Z" style="fill: #ffba4f"/>
        </g>
      </g>
    </g>
  </g>
</svg>
